<svg width="17" height="20" viewBox="0 0 17 20" fill="none" xmlns="http://www.w3.org/2000/svg">
<g id="Group">
<g id="Group_2">
<path id="Vector" d="M8.39663 0C2.91513 0 0 3.51266 0 7.34283C0 9.11916 0.992545 11.3343 2.58137 12.0368C2.82263 12.1455 2.95388 12.0993 3.00764 11.8755C3.05514 11.7055 3.2639 10.8867 3.36515 10.5005C3.3964 10.3767 3.38015 10.2692 3.28015 10.153C2.75262 9.54293 2.33386 8.43163 2.33386 7.38908C2.33386 4.71771 4.4577 2.12385 8.07162 2.12385C11.1968 2.12385 13.3831 4.15394 13.3831 7.05782C13.3831 10.3392 11.6468 12.6093 9.39043 12.6093C8.14162 12.6093 7.21158 11.6293 7.50659 10.4167C7.86286 8.97291 8.56164 7.42034 8.56164 6.37904C8.56164 5.44525 8.03411 4.67271 6.95657 4.67271C5.68526 4.67271 4.65396 5.93152 4.65396 7.6216C4.65396 8.69539 5.03398 9.42043 5.03398 9.42043C5.03398 9.42043 3.77642 14.5007 3.54266 15.4495C3.14764 17.0558 3.59641 19.6571 3.63516 19.8809C3.65892 20.0047 3.79767 20.0434 3.87518 19.9422C3.99893 19.7796 5.519 17.6108 5.94527 16.0432C6.10028 15.472 6.73656 13.1556 6.73656 13.1556C7.15532 13.9119 8.36413 14.5457 9.65169 14.5457C13.4819 14.5457 16.2495 11.1793 16.2495 7.00157C16.2357 2.99639 12.8081 0 8.39663 0Z" fill="#1E1E1E"/>
</g>
</g>
</svg>
